<svg width="70" height="14" viewBox="0 0 70 14" fill="none" xmlns="http://www.w3.org/2000/svg">
<path d="M5.48311 2.13415C4.66229 2.13415 4.41604 2.49531 4.41604 3.29972V4.62946H6.61585L6.40244 6.79643H4.41604V13.3466H1.77298V6.79643H0V4.64587H1.77298V3.34897C1.77298 1.14916 2.65947 0 5.10553 0C5.61445 0 6.13977 0.032833 6.64869 0.0984991V2.13415" fill="#004F9D"/>
<path d="M6.79645 8.71714C6.79645 6.2875 7.9456 4.44885 10.3752 4.44885C11.6886 4.44885 12.493 5.12193 12.887 5.97559V4.64585H15.4151V13.363H12.8706V12.0497C12.5094 12.8869 11.6721 13.5436 10.3588 13.5436C7.9456 13.5436 6.78003 11.7214 6.78003 9.27531M9.4395 9.30814C9.4395 10.605 9.91558 11.4751 11.1468 11.4751C12.2303 11.4751 12.7721 10.6871 12.7721 9.43947V8.55298C12.7721 7.30533 12.2139 6.51733 11.1468 6.51733C9.91558 6.51733 9.4395 7.37099 9.4395 8.68431V9.30814Z" fill="#004F9D"/>
<path d="M20.8982 4.44885C21.916 4.44885 22.901 4.66227 23.4264 5.03985L22.8354 6.91133C22.2936 6.64866 21.6862 6.51733 21.0788 6.51733C19.6506 6.51733 19.0267 7.33816 19.0267 8.74998V9.25889C19.0267 10.6707 19.6506 11.4915 21.0788 11.4915C21.6862 11.4915 22.2936 11.3438 22.8354 11.0811L23.4264 12.9526C22.901 13.3138 21.9324 13.5436 20.8982 13.5436C17.7955 13.5436 16.4001 11.8855 16.4001 9.20964V8.79923C16.4001 6.12334 17.7955 4.44885 20.8982 4.44885Z" fill="#004F9D"/>
<path d="M23.7711 9.32456V8.55298C23.7711 6.07409 25.1829 4.44885 28.0558 4.44885C30.7645 4.44885 31.963 6.0905 31.963 8.52015V9.91555H26.4142C26.4634 11.114 27.0052 11.6393 28.4662 11.6393C29.4184 11.6393 30.3706 11.4587 31.2735 11.114L31.7495 12.9198C31.06 13.2809 29.6318 13.56 28.3677 13.56C25.0188 13.5436 23.7711 11.8855 23.7711 9.32456ZM26.4142 8.1754H29.599V7.96199C29.599 7.00983 29.2214 6.25467 28.0558 6.25467C26.8738 6.25467 26.4142 7.00983 26.4142 8.1754Z" fill="#004F9D"/>
<path d="M41.7472 9.27533C41.7472 11.705 40.5816 13.5436 38.152 13.5436C36.8387 13.5436 35.9193 12.887 35.5582 12.0497V13.363H33.0629V0.262668L35.7059 0.0328369V5.8607C36.0835 5.08912 36.9372 4.46529 38.1684 4.46529C40.5816 4.46529 41.7636 6.28753 41.7636 8.73359M39.1041 8.66792C39.1041 7.43668 38.6281 6.51736 37.364 6.51736C36.2805 6.51736 35.7059 7.28893 35.7059 8.53659V9.45591C35.7059 10.7036 36.2969 11.4751 37.364 11.4751C38.6281 11.4751 39.1041 10.5558 39.1041 9.32458V8.66792Z" fill="#004F9D"/>
<path d="M42.6172 9.20964V8.7664C42.6172 6.25467 44.0455 4.44885 46.9512 4.44885C49.8569 4.44885 51.2852 6.25467 51.2852 8.7664V9.20964C51.2852 11.7214 49.8569 13.5272 46.9512 13.5272C44.0455 13.5272 42.6172 11.7378 42.6172 9.20964ZM48.6585 8.58581C48.6585 7.43666 48.1824 6.51733 46.9512 6.51733C45.72 6.51733 45.2439 7.43666 45.2439 8.58581V9.40664C45.2439 10.5558 45.72 11.4751 46.9512 11.4751C48.1824 11.4751 48.6585 10.5558 48.6585 9.40664V8.58581Z" fill="#004F9D"/>
<path d="M52.1881 9.20964V8.7664C52.1881 6.25467 53.6163 4.44885 56.5221 4.44885C59.4278 4.44885 60.856 6.25467 60.856 8.7664V9.20964C60.856 11.7214 59.4278 13.5272 56.5221 13.5272C53.6163 13.5272 52.1881 11.7378 52.1881 9.20964ZM58.2294 8.58581C58.2294 7.43666 57.7533 6.51733 56.5221 6.51733C55.2908 6.51733 54.8147 7.43666 54.8147 8.58581V9.40664C54.8147 10.5558 55.2908 11.4751 56.5221 11.4751C57.7533 11.4751 58.2294 10.5558 58.2294 9.40664V8.58581Z" fill="#004F9D"/>
<path d="M64.484 8.79943L67.0943 4.62964H69.8851L67.1599 8.94718L70 13.3632H67.1928L64.484 9.09493V13.3632H61.8574V0.262849L64.484 0.0166016" fill="#004F9D"/>
</svg>
