<svg width="60" height="11" viewBox="0 0 60 11" fill="none" xmlns="http://www.w3.org/2000/svg">
<path fill-rule="evenodd" clip-rule="evenodd" d="M59.685 9.07436C59.685 8.98855 59.6468 8.89827 59.5703 8.8552C59.4932 8.8099 59.407 8.80543 59.3206 8.80543H58.8741V9.82213H58.9992V9.35318H59.2296L59.5221 9.82213H59.6709L59.3614 9.35318C59.5439 9.34808 59.685 9.27439 59.685 9.07436ZM59.191 9.25525H58.9989V8.89572H59.2913C59.4186 8.89572 59.5581 8.91486 59.5581 9.07213C59.5584 9.27917 59.3347 9.25525 59.191 9.25525ZM53.8427 4.15899L55.7164 2.17312C55.8251 2.02734 55.8791 1.92525 55.8791 1.83784C55.8791 1.69205 55.7527 1.63367 55.3555 1.63367H54.8827V0.379947H60V1.63367H59.3276C58.5511 1.63367 58.4068 1.75011 57.3234 3.10592L54.3592 6.28331V8.22228C54.3592 8.71834 54.6115 8.89284 55.334 8.89284H56.4531V10.1025H49.2856V8.89284H50.4047C51.1266 8.89284 51.3795 8.71834 51.3795 8.22228V6.28331L47.8882 2.44971C47.3112 1.77946 47.391 1.63367 45.7846 1.63367V0.379947H52.2665V1.63367H51.805C51.3355 1.63367 51.1365 1.72108 51.1365 1.8959C51.1365 2.04201 51.2808 2.15845 51.3711 2.27489L53.1375 4.18579C53.3474 4.4024 53.6036 4.43047 53.8427 4.15899ZM10.3522 0.379628H11.9158V3.87794H10.4718C10.3438 3.17866 9.90288 2.90654 9.50082 2.53967C8.77542 1.87804 7.20444 1.3271 5.88317 1.3271C4.17784 1.3271 2.73862 1.8522 2.73862 2.62421C2.73862 4.76735 12.4914 3.0619 12.4914 7.11402C12.4914 9.22749 10.4023 10.4082 6.65067 10.4082C5.3519 10.4082 3.38656 10.0081 2.22696 9.39689C1.86346 9.18857 1.70919 9.59404 1.64105 10.1022H0.0379249V6.48716H1.48807C1.80786 7.4056 2.24849 7.59477 2.65377 7.95941C3.35699 8.60095 5.03083 9.06766 6.56582 9.05267C8.8802 9.03002 9.67598 8.52789 9.67598 7.79894C9.67598 7.07031 8.88888 6.89518 6.35273 6.50183L4.19937 6.15187C1.76929 5.78724 0 5.24811 0 3.32413C0 1.3271 2.23821 0.0733719 5.77711 0.0733719C7.26839 0.0733719 8.51606 0.271163 9.71358 0.943007C10.0453 1.15707 10.3564 1.18259 10.3522 0.379628ZM40.8669 6.23673L40.8978 2.34858C40.8978 1.83848 40.6304 1.66366 39.8664 1.66366H38.9687V0.453956H44.68V1.66366H43.9356C43.171 1.66366 42.9036 1.8388 42.9036 2.34858V10.1762L40.6683 10.1587L33.4291 3.35444V8.29597C33.4291 8.79172 33.6965 8.98089 34.4605 8.98089H35.4543V10.1762H29.5229V8.98089H30.5057C31.2697 8.98089 31.5371 8.7914 31.5371 8.29597V2.34858C31.5371 1.83848 31.2697 1.66366 30.5057 1.66366H29.5229V0.453956H34.6511L40.8669 6.23673ZM21.7364 0C17.1848 0 14.3356 1.99735 14.3356 5.20376C14.3356 8.35275 17.1452 10.3348 21.5976 10.3348C26.3266 10.3348 29.0774 8.38178 29.0774 5.04362C29.0778 2.04105 26.1093 0 21.7364 0ZM21.6329 9.06703C19.1135 9.06703 17.6653 7.62381 17.6653 5.13103C17.6653 2.69695 19.1765 1.25373 21.7589 1.25373C24.2362 1.25373 25.6844 2.7263 25.6844 5.23343C25.6844 7.68218 24.215 9.06703 21.6329 9.06703Z" fill="black"/>
</svg>
