<svg width="27" height="22" viewBox="0 0 27 22" fill="none" xmlns="http://www.w3.org/2000/svg">
<path fill-rule="evenodd" clip-rule="evenodd" d="M18.1679 22V13.4805H21.6096L22.1245 10.1607H18.1666V8.041C18.1666 7.0796 18.4883 6.424 20.1482 6.424H22.2635V3.454C21.2391 3.36341 20.2095 3.31934 19.1793 3.322C16.1294 3.322 14.0419 4.8697 14.0419 7.711V10.1607H10.5897V13.4805H14.0406V22H1.46138C0.653914 22 0 21.4566 0 20.7856V1.2144C0 0.5434 0.653914 0 1.46138 0H25.0129C25.8203 0 26.4742 0.5434 26.4742 1.2144V20.7856C26.4742 21.4566 25.8203 22 25.0129 22H18.1679Z" fill="#D9D9D9"/>
</svg>
