<svg width="27" height="22" viewBox="0 0 27 22" fill="none" xmlns="http://www.w3.org/2000/svg">
<path d="M26.2168 8.84565H25.1505V8.8H13.2371V13.2H20.7181C19.6267 15.7614 16.694 17.6 13.2371 17.6C8.851 17.6 5.29485 14.6448 5.29485 11C5.29485 7.35515 8.851 4.4 13.2371 4.4C15.2617 4.4 17.1037 5.0347 18.5062 6.07145L22.2503 2.9601C19.8861 1.12915 16.7238 0 13.2371 0C5.92692 0 0 4.92525 0 11C0 17.0748 5.92692 22 13.2371 22C20.5473 22 26.4742 17.0748 26.4742 11C26.4742 10.2625 26.3829 9.5425 26.2168 8.84565Z" fill="#D9D9D9"/>
<path d="M1.52625 5.88005L5.8753 8.5305C7.05208 6.1094 9.90203 4.4 13.2371 4.4C15.2617 4.4 17.1037 5.0347 18.5062 6.07145L22.2503 2.9601C19.8861 1.12915 16.7238 0 13.2371 0C8.15275 0 3.74346 2.38535 1.52625 5.88005Z" fill="#D9D9D9"/>
<path d="M13.2371 22C16.6563 22 19.763 20.9127 22.1119 19.1444L18.015 16.2635C16.6414 17.1317 14.9629 17.6012 13.2371 17.6C9.79413 17.6 6.87071 15.7757 5.76938 13.2297L1.45276 15.9935C3.6435 19.5558 8.0925 22 13.2371 22Z" fill="#D9D9D9"/>
<path d="M26.2167 8.8457H25.1505V8.80005H13.2371V13.2H20.718C20.196 14.4191 19.2556 15.4843 18.013 16.2641L18.015 16.263L22.1119 19.1439C21.822 19.3628 26.4742 16.5 26.4742 11C26.4742 10.2625 26.3828 9.54255 26.2167 8.8457Z" fill="#D9D9D9"/>
</svg>
