<svg width="31" height="22" viewBox="0 0 31 22" fill="none" xmlns="http://www.w3.org/2000/svg">
<path d="M30.0844 2.60431C28.9578 3.05339 27.7629 3.34816 26.5393 3.47883C27.8138 2.79148 28.7924 1.70304 29.2532 0.40617C28.0416 1.05311 26.7161 1.50892 25.3339 1.7539C24.2079 0.674553 22.6039 0 20.8286 0C17.4199 0 14.6563 2.48672 14.6563 5.55377C14.6563 5.98913 14.7109 6.41296 14.8161 6.81955C9.68646 6.58786 5.13855 4.37682 2.09427 1.01664C1.56309 1.83691 1.25873 2.79106 1.25873 3.80875C1.25873 5.73566 2.34846 7.43552 4.00451 8.43154C3.02436 8.40392 2.06577 8.1657 1.20878 7.73679C1.20843 7.76005 1.20843 7.78332 1.20843 7.80669C1.20843 10.4976 3.33596 12.7424 6.15942 13.2526C5.25053 13.475 4.29716 13.5076 3.37215 13.3478C4.15752 15.5543 6.437 17.1599 9.13777 17.2048C7.02541 18.6944 4.364 19.5823 1.47237 19.5823C0.974099 19.5823 0.482878 19.556 0 19.5047C2.73145 21.0805 5.97574 22 9.4613 22C20.8143 22 27.0223 13.5371 27.0223 6.19787C27.0223 5.95698 27.0165 5.71747 27.0045 5.47933C28.2128 4.6933 29.2558 3.71973 30.0844 2.60431Z" fill="#D9D9D9"/>
</svg>
