<svg width="109" height="29" viewBox="0 0 109 29" fill="none" xmlns="http://www.w3.org/2000/svg">
<path d="M11.16 22.47C9.60001 22.47 8.14001 22.2 6.78001 21.66C5.42001 21.1 4.23001 20.33 3.21001 19.35C2.21001 18.37 1.42001 17.23 0.840014 15.93C0.280014 14.61 1.3493e-05 13.19 1.3493e-05 11.67C1.3493e-05 10.13 0.280014 8.71 0.840014 7.41C1.42001 6.09 2.22001 4.94 3.24001 3.96C4.26001 2.98 5.44001 2.22 6.78001 1.68C8.14001 1.12 9.60001 0.839997 11.16 0.839997C12.32 0.839997 13.44 0.999997 14.52 1.32C15.6 1.64 16.6 2.09 17.52 2.67C18.46 3.25 19.26 3.95 19.92 4.77L16.98 7.68C16.22 6.74 15.34 6.03 14.34 5.55C13.36 5.07 12.3 4.83 11.16 4.83C10.22 4.83 9.34001 5.01 8.52001 5.37C7.70001 5.71 6.99001 6.19 6.39001 6.81C5.79001 7.41 5.32001 8.13 4.98001 8.97C4.64001 9.79 4.47001 10.69 4.47001 11.67C4.47001 12.63 4.64001 13.53 4.98001 14.37C5.32001 15.19 5.80001 15.91 6.42001 16.53C7.04001 17.13 7.76001 17.6 8.58001 17.94C9.42001 18.28 10.33 18.45 11.31 18.45C12.41 18.45 13.44 18.22 14.4 17.76C15.36 17.3 16.21 16.64 16.95 15.78L19.8 18.6C19.14 19.4 18.35 20.09 17.43 20.67C16.51 21.25 15.51 21.7 14.43 22.02C13.37 22.32 12.28 22.47 11.16 22.47ZM29.2538 22.47C27.6938 22.47 26.2838 22.11 25.0238 21.39C23.7638 20.67 22.7638 19.7 22.0238 18.48C21.2838 17.26 20.9138 15.89 20.9138 14.37C20.9138 12.85 21.2738 11.48 21.9938 10.26C22.7338 9.02 23.7338 8.04 24.9938 7.32C26.2738 6.6 27.6938 6.24 29.2538 6.24C30.8138 6.24 32.2238 6.6 33.4838 7.32C34.7638 8.04 35.7638 9.02 36.4838 10.26C37.2238 11.48 37.5938 12.85 37.5938 14.37C37.5938 15.89 37.2238 17.26 36.4838 18.48C35.7638 19.7 34.7738 20.67 33.5138 21.39C32.2538 22.11 30.8338 22.47 29.2538 22.47ZM29.2538 18.9C30.0738 18.9 30.8038 18.7 31.4438 18.3C32.1038 17.9 32.6238 17.36 33.0038 16.68C33.4038 15.98 33.6038 15.21 33.6038 14.37C33.6038 13.51 33.4038 12.74 33.0038 12.06C32.6238 11.38 32.1038 10.84 31.4438 10.44C30.8038 10.02 30.0738 9.81 29.2538 9.81C28.4538 9.81 27.7238 10.02 27.0638 10.44C26.4038 10.84 25.8838 11.38 25.5038 12.06C25.1238 12.74 24.9338 13.51 24.9338 14.37C24.9338 15.21 25.1238 15.98 25.5038 16.68C25.8838 17.36 26.4038 17.9 27.0638 18.3C27.7238 18.7 28.4538 18.9 29.2538 18.9ZM47.7401 22.47C46.1801 22.47 44.7701 22.11 43.5101 21.39C42.2501 20.67 41.2501 19.7 40.5101 18.48C39.7701 17.26 39.4001 15.89 39.4001 14.37C39.4001 12.85 39.7601 11.48 40.4801 10.26C41.2201 9.02 42.2201 8.04 43.4801 7.32C44.7601 6.6 46.1801 6.24 47.7401 6.24C49.3001 6.24 50.7101 6.6 51.9701 7.32C53.2501 8.04 54.2501 9.02 54.9701 10.26C55.7101 11.48 56.0801 12.85 56.0801 14.37C56.0801 15.89 55.7101 17.26 54.9701 18.48C54.2501 19.7 53.2601 20.67 52.0001 21.39C50.7401 22.11 49.3201 22.47 47.7401 22.47ZM47.7401 18.9C48.5601 18.9 49.2901 18.7 49.9301 18.3C50.5901 17.9 51.1101 17.36 51.4901 16.68C51.8901 15.98 52.0901 15.21 52.0901 14.37C52.0901 13.51 51.8901 12.74 51.4901 12.06C51.1101 11.38 50.5901 10.84 49.9301 10.44C49.2901 10.02 48.5601 9.81 47.7401 9.81C46.9401 9.81 46.2101 10.02 45.5501 10.44C44.8901 10.84 44.3701 11.38 43.9901 12.06C43.6101 12.74 43.4201 13.51 43.4201 14.37C43.4201 15.21 43.6101 15.98 43.9901 16.68C44.3701 17.36 44.8901 17.9 45.5501 18.3C46.2101 18.7 46.9401 18.9 47.7401 18.9ZM58.6064 22.17V1.17L62.7164 0.479997V22.17H58.6064ZM67.9706 4.68C67.3306 4.68 66.7806 4.45 66.3206 3.99C65.8606 3.53 65.6306 2.98 65.6306 2.34C65.6306 1.68 65.8606 1.13 66.3206 0.689998C66.7806 0.229998 67.3306 -2.5034e-06 67.9706 -2.5034e-06C68.6306 -2.5034e-06 69.1806 0.229998 69.6206 0.689998C70.0806 1.13 70.3106 1.68 70.3106 2.34C70.3106 2.98 70.0806 3.53 69.6206 3.99C69.1806 4.45 68.6306 4.68 67.9706 4.68ZM64.9706 28.59C64.5906 28.59 64.2006 28.56 63.8006 28.5C63.4006 28.46 63.0806 28.4 62.8406 28.32V25.17C63.2006 25.25 63.6406 25.29 64.1606 25.29C64.7606 25.29 65.2006 25.16 65.4806 24.9C65.7806 24.66 65.9306 24.26 65.9306 23.7V6.54H70.0406V23.94C70.0406 25.42 69.6006 26.56 68.7206 27.36C67.8406 28.18 66.5906 28.59 64.9706 28.59ZM80.8749 22.47C79.3149 22.47 77.9049 22.11 76.6449 21.39C75.3849 20.67 74.3849 19.7 73.6449 18.48C72.9049 17.26 72.5349 15.89 72.5349 14.37C72.5349 12.85 72.8949 11.48 73.6149 10.26C74.3549 9.02 75.3549 8.04 76.6149 7.32C77.8949 6.6 79.3149 6.24 80.8749 6.24C82.4349 6.24 83.8449 6.6 85.1049 7.32C86.3849 8.04 87.3849 9.02 88.1049 10.26C88.8449 11.48 89.2149 12.85 89.2149 14.37C89.2149 15.89 88.8449 17.26 88.1049 18.48C87.3849 19.7 86.3949 20.67 85.1349 21.39C83.8749 22.11 82.4549 22.47 80.8749 22.47ZM80.8749 18.9C81.6949 18.9 82.4249 18.7 83.0649 18.3C83.7249 17.9 84.2449 17.36 84.6249 16.68C85.0249 15.98 85.2249 15.21 85.2249 14.37C85.2249 13.51 85.0249 12.74 84.6249 12.06C84.2449 11.38 83.7249 10.84 83.0649 10.44C82.4249 10.02 81.6949 9.81 80.8749 9.81C80.0749 9.81 79.3449 10.02 78.6849 10.44C78.0249 10.84 77.5049 11.38 77.1249 12.06C76.7449 12.74 76.5549 13.51 76.5549 14.37C76.5549 15.21 76.7449 15.98 77.1249 16.68C77.5049 17.36 78.0249 17.9 78.6849 18.3C79.3449 18.7 80.0749 18.9 80.8749 18.9ZM91.7412 22.17V1.17L95.8512 0.479997V7.8C97.0912 6.82 98.5512 6.33 100.231 6.33C101.711 6.33 103.051 6.69 104.251 7.41C105.451 8.13 106.401 9.1 107.101 10.32C107.821 11.52 108.181 12.87 108.181 14.37C108.181 15.87 107.821 17.23 107.101 18.45C106.381 19.65 105.411 20.61 104.191 21.33C102.971 22.03 101.611 22.38 100.111 22.38C99.3312 22.38 98.5712 22.27 97.8312 22.05C97.0912 21.83 96.4112 21.51 95.7912 21.09V22.17H91.7412ZM99.5712 18.9C100.431 18.9 101.201 18.7 101.881 18.3C102.581 17.9 103.131 17.36 103.531 16.68C103.931 16 104.131 15.23 104.131 14.37C104.131 13.51 103.931 12.74 103.531 12.06C103.131 11.36 102.581 10.82 101.881 10.44C101.201 10.04 100.431 9.84 99.5712 9.84C98.8112 9.84 98.1112 9.97 97.4712 10.23C96.8512 10.47 96.3112 10.84 95.8512 11.34V17.43C96.2912 17.89 96.8312 18.25 97.4712 18.51C98.1312 18.77 98.8312 18.9 99.5712 18.9Z" fill="#274059"/>
</svg>
