<svg width="25" height="25" viewBox="0 0 25 25" fill="none" xmlns="http://www.w3.org/2000/svg">
<path d="M23.0426 0H1.21277C0.89112 0 0.582649 0.131696 0.355211 0.366116C0.127773 0.600537 0 0.918479 0 1.25V23.75C0 24.0815 0.127773 24.3995 0.355211 24.6339C0.582649 24.8683 0.89112 25 1.21277 25H23.0426C23.3642 25 23.6727 24.8683 23.9001 24.6339C24.1275 24.3995 24.2553 24.0815 24.2553 23.75V1.25C24.2553 0.918479 24.1275 0.600537 23.9001 0.366116C23.6727 0.131696 23.3642 0 23.0426 0ZM7.2766 22.5H2.42553V2.5H7.2766V22.5ZM21.8298 22.5H9.70213V13.75H21.8298V22.5ZM21.8298 11.25H9.70213V2.5H21.8298V11.25Z" fill="#6563FF"/>
</svg>
