<svg width="25" height="23" viewBox="0 0 25 23" fill="none" xmlns="http://www.w3.org/2000/svg">
<path fill-rule="evenodd" clip-rule="evenodd" d="M2.42553 0H21.8298C22.4731 0 23.09 0.263392 23.5449 0.732233C23.9998 1.20107 24.2553 1.83696 24.2553 2.5V5C24.2528 5.43628 24.1395 5.86428 23.9267 6.24146C23.714 6.61864 23.4091 6.93186 23.0426 7.15V20C23.0426 20.663 22.787 21.2989 22.3321 21.7678C21.8773 22.2366 21.2603 22.5 20.617 22.5H3.6383C2.99501 22.5 2.37806 22.2366 1.92319 21.7678C1.46831 21.2989 1.21277 20.663 1.21277 20V7.15C0.846176 6.93186 0.541355 6.61864 0.328598 6.24146C0.11584 5.86428 0.00255498 5.43628 0 5V2.5C0 1.83696 0.255546 1.20107 0.710422 0.732233C1.1653 0.263392 1.78224 0 2.42553 0ZM21.8298 2.5H2.42553V5H21.8298V2.5ZM3.6383 7.5V20H20.617V7.5H3.6383ZM16.9787 10H7.2766V12.5H16.9787V10Z" fill="#6563FF"/>
</svg>
