<svg width="25" height="25" viewBox="0 0 25 25" fill="none" xmlns="http://www.w3.org/2000/svg">
<path d="M8.24691 11.6185C8.13324 11.7348 8.04302 11.873 7.98145 12.0253C7.91988 12.1777 7.88818 12.341 7.88818 12.506C7.88818 12.6711 7.91988 12.8344 7.98145 12.9868C8.04302 13.1391 8.13324 13.2773 8.24691 13.3935C8.47414 13.6264 8.78152 13.757 9.10191 13.757C9.42231 13.757 9.72969 13.6264 9.95691 13.3935C10.0706 13.2773 10.1608 13.1391 10.2224 12.9868C10.2839 12.8344 10.3156 12.6711 10.3156 12.506C10.3156 12.341 10.2839 12.1777 10.2224 12.0253C10.1608 11.873 10.0706 11.7348 9.95691 11.6185C9.72969 11.3857 9.42231 11.2551 9.10191 11.2551C8.78152 11.2551 8.47414 11.3857 8.24691 11.6185ZM11.2424 14.7185C11.0166 14.9528 10.8898 15.2696 10.8898 15.5998C10.8898 15.93 11.0166 16.2468 11.2424 16.481C11.3552 16.5982 11.4893 16.6912 11.6371 16.7547C11.7849 16.8181 11.9434 16.8508 12.1035 16.8508C12.2636 16.8508 12.4221 16.8181 12.5699 16.7547C12.7177 16.6912 12.8518 16.5982 12.9646 16.481C13.1905 16.2468 13.3172 15.93 13.3172 15.5998C13.3172 15.2696 13.1905 14.9528 12.9646 14.7185C12.8518 14.6014 12.7177 14.5084 12.5699 14.4449C12.4221 14.3815 12.2636 14.3488 12.1035 14.3488C11.9434 14.3488 11.7849 14.3815 11.6371 14.4449C11.4893 14.5084 11.3552 14.6014 11.2424 14.7185ZM22.1573 2.21855C20.8381 0.847582 19.0567 0.053867 17.1839 0.00264237C15.3112 -0.0485823 13.4914 0.64663 12.1035 1.94355C10.722 0.661773 8.91692 -0.0264758 7.05867 0.0200122C5.20042 0.0665002 3.42988 0.8442 2.11032 2.19355C0.799338 3.55585 0.0447932 5.38422 0.001931 7.30249C-0.0409312 9.22075 0.631149 11.083 1.87989 12.506C0.946271 13.5818 0.333661 14.9125 0.115573 16.3382C-0.102515 17.764 0.0831845 19.2243 0.650387 20.544C1.21759 21.8637 2.1422 22.9866 3.31326 23.7781C4.48433 24.5696 5.8521 24.9959 7.25244 25.006C9.04761 25.008 10.7784 24.3168 12.1035 23.0686C13.4857 24.354 15.2934 25.0445 17.1545 24.998C19.0156 24.9515 20.7887 24.1715 22.1088 22.8185C23.4181 21.4546 24.1705 19.6254 24.2111 17.7071C24.2517 15.7889 23.5775 13.9275 22.3271 12.506C23.5775 11.0846 24.2517 9.22322 24.2111 7.30498C24.1705 5.38673 23.4181 3.55747 22.1088 2.19355L22.1573 2.21855ZM20.3867 3.96855C21.2301 4.86278 21.7188 6.0496 21.757 7.2961C21.7951 8.54261 21.3799 9.75881 20.5929 10.706L13.8499 3.75605C14.777 2.96322 15.9533 2.54718 17.1573 2.58632C18.3614 2.62547 19.51 3.11708 20.3867 3.96855ZM3.82032 21.0435C2.97692 20.1493 2.4882 18.9625 2.45005 17.716C2.41191 16.4695 2.8271 15.2533 3.61415 14.306L10.4056 21.306C9.4683 22.1036 8.27895 22.5176 7.06441 22.4692C5.84986 22.4208 4.6951 21.9133 3.82032 21.0435ZM20.3867 21.0435C19.4659 21.9512 18.2409 22.4578 16.9667 22.4578C15.6926 22.4578 14.4675 21.9512 13.5467 21.0435L3.84457 11.0435C2.94106 10.1067 2.43392 8.83948 2.43392 7.51855C2.43392 6.19762 2.94106 4.93036 3.84457 3.99355C4.75348 3.06229 5.98299 2.53959 7.26457 2.53959C8.54615 2.53959 9.77567 3.06229 10.6846 3.99355L20.3867 13.9935C21.2902 14.9304 21.7974 16.1976 21.7974 17.5185C21.7974 18.8395 21.2902 20.1067 20.3867 21.0435ZM14.2501 11.6185C14.1364 11.7348 14.0462 11.873 13.9846 12.0253C13.9231 12.1777 13.8914 12.341 13.8914 12.506C13.8914 12.6711 13.9231 12.8344 13.9846 12.9868C14.0462 13.1391 14.1364 13.2773 14.2501 13.3935C14.4773 13.6264 14.7847 13.757 15.1051 13.757C15.4255 13.757 15.7329 13.6264 15.9601 13.3935C16.0738 13.2773 16.164 13.1391 16.2256 12.9868C16.2871 12.8344 16.3188 12.6711 16.3188 12.506C16.3188 12.341 16.2871 12.1777 16.2256 12.0253C16.164 11.873 16.0738 11.7348 15.9601 11.6185C15.7329 11.3857 15.4255 11.2551 15.1051 11.2551C14.7847 11.2551 14.4773 11.3857 14.2501 11.6185ZM11.2424 8.53105C11.0166 8.76525 10.8898 9.08207 10.8898 9.4123C10.8898 9.74253 11.0166 10.0593 11.2424 10.2935C11.3552 10.4107 11.4893 10.5037 11.6371 10.5672C11.7849 10.6306 11.9434 10.6633 12.1035 10.6633C12.2636 10.6633 12.4221 10.6306 12.5699 10.5672C12.7177 10.5037 12.8518 10.4107 12.9646 10.2935C13.1905 10.0593 13.3172 9.74253 13.3172 9.4123C13.3172 9.08207 13.1905 8.76525 12.9646 8.53105C12.8518 8.41389 12.7177 8.3209 12.5699 8.25743C12.4221 8.19397 12.2636 8.1613 12.1035 8.1613C11.9434 8.1613 11.7849 8.19397 11.6371 8.25743C11.4893 8.3209 11.3552 8.41389 11.2424 8.53105Z" fill="#6563FF"/>
</svg>
