<svg width="30" height="30" viewBox="0 0 30 30" fill="none" xmlns="http://www.w3.org/2000/svg">
<path fill-rule="evenodd" clip-rule="evenodd" d="M14.476 0H14.6304C17.7562 0 20.2052 8.31693e-08 22.1168 0.265116C24.0717 0.535814 25.615 1.10233 26.8266 2.34977C28.0382 3.5986 28.5865 5.1893 28.8492 7.20558C29.1064 9.17442 29.1064 11.6986 29.1064 14.9205V15.0795C29.1064 18.3014 29.1064 20.8256 28.8492 22.7958C28.5865 24.8107 28.0369 26.4014 26.8266 27.6502C25.615 28.8991 24.0717 29.4642 22.1154 29.7349C20.2052 30 17.7562 30 14.6304 30H14.476C11.3501 30 8.90114 30 6.98959 29.7349C5.03473 29.4642 3.49141 28.8977 2.27977 27.6502C1.06814 26.4014 0.519854 24.8107 0.257219 22.7944C8.06919e-08 20.8256 0 18.3014 0 15.0795V14.9205C0 11.6986 8.06919e-08 9.17442 0.257219 7.20419C0.519854 5.1893 1.06949 3.5986 2.27977 2.34977C3.49141 1.10093 5.03473 0.535814 6.99095 0.265116C8.90114 8.31693e-08 11.3501 0 14.476 0ZM7.26035 2.3386C5.53021 2.5786 4.48644 3.03628 3.71614 3.83023C2.94448 4.62558 2.5018 5.7 2.26894 7.48465C2.23239 7.76651 2.20125 8.06093 2.17418 8.37209H7.22651L11.0929 2.10977C9.5672 2.13349 8.31359 2.19349 7.26035 2.3386ZM13.4796 2.09302C13.4542 2.16785 13.4206 2.23947 13.3795 2.30651L9.63354 8.37209H16.0261L19.8573 2.16558C18.421 2.09302 16.6868 2.09302 14.5532 2.09302H13.4796ZM22.1317 2.38186L18.4331 8.37209H26.9308C26.9038 8.06093 26.874 7.76651 26.8361 7.48465C26.6046 5.7 26.1619 4.62419 25.3902 3.82884C24.6633 3.07953 23.6926 2.63163 22.1317 2.38186ZM27.0392 10.4651H7.79916C7.78833 10.4653 7.7775 10.4653 7.76667 10.4651H2.06723C2.03528 11.9765 2.02309 13.4883 2.03068 15C2.03068 18.3181 2.03339 20.7014 2.26894 22.5153C2.5018 24.3 2.94584 25.3758 3.71614 26.1712C4.4878 26.9651 5.53021 27.4214 7.2617 27.6614C9.02162 27.9042 11.3339 27.907 14.5532 27.907C17.7725 27.907 20.0848 27.9042 21.8447 27.6614C23.5762 27.4214 24.6199 26.9637 25.3916 26.1698C26.1619 25.3744 26.6046 24.3 26.8374 22.5153C27.073 20.7014 27.0757 18.3181 27.0757 15C27.0757 13.2447 27.0757 11.7516 27.0392 10.4651Z" fill="#6563FF"/>
</svg>
