<svg width="19" height="30" viewBox="0 0 19 30" fill="none" xmlns="http://www.w3.org/2000/svg">
<path d="M8.18617 0C8.43251 0 8.64569 0.0927734 8.82572 0.27832C9.00574 0.463867 9.09575 0.683594 9.09575 0.9375V11.25C9.09575 11.7676 9.001 12.251 8.8115 12.7002C8.62201 13.1494 8.36145 13.5449 8.02984 13.8867C7.69822 14.2285 7.30976 14.4971 6.86445 14.6924C6.41913 14.8877 5.95013 14.9902 5.45745 15V29.0625C5.45745 29.3164 5.36744 29.5361 5.18742 29.7217C5.0074 29.9072 4.79422 30 4.54787 30C4.30153 30 4.08835 29.9072 3.90833 29.7217C3.72831 29.5361 3.6383 29.3164 3.6383 29.0625V15C3.13614 15 2.66714 14.9023 2.2313 14.707C1.79546 14.5117 1.41174 14.2432 1.08012 13.9014C0.748504 13.5596 0.487949 13.1641 0.298454 12.7148C0.108959 12.2656 0.00947473 11.7773 0 11.25V0.9375C0 0.683594 0.09001 0.463867 0.27003 0.27832C0.45005 0.0927734 0.663231 0 0.909575 0C1.15592 0 1.3691 0.0927734 1.54912 0.27832C1.72914 0.463867 1.81915 0.683594 1.81915 0.9375V11.25C1.81915 11.5137 1.86652 11.7578 1.96127 11.9824C2.05602 12.207 2.18393 12.4023 2.345 12.5684C2.50607 12.7344 2.7003 12.8711 2.92769 12.9785C3.15509 13.0859 3.39195 13.1348 3.6383 13.125V0.9375C3.6383 0.683594 3.72831 0.463867 3.90833 0.27832C4.08835 0.0927734 4.30153 0 4.54787 0C4.79422 0 5.0074 0.0927734 5.18742 0.27832C5.36744 0.463867 5.45745 0.683594 5.45745 0.9375V13.125C5.71326 13.125 5.95013 13.0762 6.16805 12.9785C6.38597 12.8809 6.57547 12.749 6.73654 12.583C6.89761 12.417 7.03025 12.2168 7.13448 11.9824C7.2387 11.748 7.28607 11.5039 7.2766 11.25V0.9375C7.2766 0.683594 7.36661 0.463867 7.54663 0.27832C7.72665 0.0927734 7.93983 0 8.18617 0ZM18.1915 0V29.0625C18.1915 29.3164 18.1015 29.5361 17.9215 29.7217C17.7414 29.9072 17.5283 30 17.2819 30C17.0356 30 16.8224 29.9072 16.6424 29.7217C16.4624 29.5361 16.3723 29.3164 16.3723 29.0625V20.625C16.0218 20.625 15.6428 20.6299 15.2354 20.6396C14.828 20.6494 14.4253 20.6445 14.0273 20.625C13.6294 20.6055 13.2409 20.5469 12.862 20.4492C12.483 20.3516 12.1513 20.2002 11.8671 19.9951C11.5829 19.79 11.3507 19.5117 11.1707 19.1602C10.9907 18.8086 10.9054 18.3594 10.9149 17.8125V6.5625C10.9149 5.6543 11.0807 4.80469 11.4123 4.01367C11.7439 3.22266 12.1987 2.5293 12.7767 1.93359C13.3546 1.33789 14.0273 0.869141 14.7948 0.527344C15.5623 0.185547 16.3913 0.00976562 17.2819 0H18.1915ZM16.3723 1.96289C15.8418 2.07031 15.3585 2.26562 14.9227 2.54883C14.4869 2.83203 14.1031 3.18359 13.7715 3.60352C13.4399 4.02344 13.1841 4.47754 13.0041 4.96582C12.8241 5.4541 12.734 5.98633 12.734 6.5625V17.8125C12.734 18.0664 12.8241 18.2861 13.0041 18.4717C13.1841 18.6572 13.3973 18.75 13.6436 18.75H16.3723V1.96289Z" fill="#6563FF"/>
</svg>
