<svg width="30" height="30" viewBox="0 0 30 30" fill="none" xmlns="http://www.w3.org/2000/svg">
<path d="M10.8333 25.2632C10.3389 25.2632 9.85553 25.4021 9.44441 25.6623C9.03328 25.9226 8.71285 26.2925 8.52363 26.7252C8.33442 27.158 8.28491 27.6342 8.38137 28.0936C8.47783 28.5531 8.71593 28.9751 9.06557 29.3063C9.4152 29.6375 9.86065 29.8631 10.3456 29.9545C10.8306 30.0459 11.3332 29.999 11.79 29.8197C12.2469 29.6405 12.6373 29.3369 12.912 28.9474C13.1867 28.5579 13.3333 28.1 13.3333 27.6316C13.3333 27.0034 13.0699 26.401 12.6011 25.9569C12.1323 25.5127 11.4964 25.2632 10.8333 25.2632ZM28.3333 20.5263H8.33333C7.89131 20.5263 7.46738 20.36 7.15482 20.0639C6.84226 19.7677 6.66667 19.3661 6.66667 18.9474C6.66667 18.5286 6.84226 18.127 7.15482 17.8309C7.46738 17.5348 7.89131 17.3684 8.33333 17.3684H22.485C23.5708 17.3652 24.6263 17.0287 25.4932 16.4092C26.3601 15.7898 26.9917 14.9208 27.2933 13.9326L29.935 5.16947C30.0056 4.93463 30.0178 4.68746 29.9705 4.4474C29.9233 4.20735 29.8179 3.98094 29.6627 3.78599C29.5075 3.59104 29.3066 3.43286 29.076 3.32387C28.8453 3.21489 28.5911 3.15807 28.3333 3.15789H7.9C7.55468 2.23739 6.91805 1.44021 6.07694 0.875069C5.23582 0.30993 4.23117 0.00434788 3.2 0H1.66667C1.22464 0 0.800716 0.166353 0.488155 0.462463C0.175595 0.758573 0 1.16018 0 1.57895C0 1.99771 0.175595 2.39932 0.488155 2.69543C0.800716 2.99154 1.22464 3.15789 1.66667 3.15789H3.20167C3.56359 3.15899 3.9154 3.27111 4.20443 3.47747C4.49346 3.68383 4.70417 3.97333 4.805 4.30263L5.06333 5.16316V5.17105L7.79833 14.2374C6.52528 14.3663 5.35294 14.953 4.52292 15.8765C3.6929 16.8 3.26845 17.99 3.33704 19.2011C3.40563 20.4123 3.96204 21.5524 4.8916 22.3865C5.82115 23.2206 7.05302 23.6851 8.33333 23.6842H28.3333C28.7754 23.6842 29.1993 23.5179 29.5118 23.2218C29.8244 22.9256 30 22.524 30 22.1053C30 21.6865 29.8244 21.2849 29.5118 20.9888C29.1993 20.6927 28.7754 20.5263 28.3333 20.5263ZM26.1233 6.31579L24.09 13.0642C23.9894 13.3941 23.7786 13.6841 23.4892 13.8908C23.1998 14.0975 22.8474 14.2097 22.485 14.2105H11.2567L10.8317 12.8021L8.87667 6.31579H26.1233ZM24.1667 25.2632C23.6722 25.2632 23.1889 25.4021 22.7777 25.6623C22.3666 25.9226 22.0462 26.2925 21.857 26.7252C21.6677 27.158 21.6182 27.6342 21.7147 28.0936C21.8112 28.5531 22.0493 28.9751 22.3989 29.3063C22.7485 29.6375 23.194 29.8631 23.6789 29.9545C24.1639 30.0459 24.6666 29.999 25.1234 29.8197C25.5802 29.6405 25.9706 29.3369 26.2453 28.9474C26.52 28.5579 26.6667 28.1 26.6667 27.6316C26.6667 27.0034 26.4033 26.401 25.9344 25.9569C25.4656 25.5127 24.8297 25.2632 24.1667 25.2632Z" fill="#6563FF"/>
</svg>
