<svg width="25" height="25" viewBox="0 0 25 25" fill="none" xmlns="http://www.w3.org/2000/svg">
<path d="M9.70213 0H14.5532C17.1264 0 19.5941 1.05357 21.4136 2.92893C23.2331 4.8043 24.2553 7.34784 24.2553 10C24.2553 12.6522 23.2331 15.1957 21.4136 17.0711C19.5941 18.9464 17.1264 20 14.5532 20V24.375C8.48936 21.875 0 18.125 0 10C0 7.34784 1.02219 4.8043 2.84169 2.92893C4.66119 1.05357 7.12896 0 9.70213 0ZM12.1277 17.5H14.5532C16.4831 17.5 18.3339 16.7098 19.6985 15.3033C21.0631 13.8968 21.8298 11.9891 21.8298 10C21.8298 8.01088 21.0631 6.10322 19.6985 4.6967C18.3339 3.29018 16.4831 2.5 14.5532 2.5H9.70213C7.77225 2.5 5.92142 3.29018 4.5568 4.6967C3.19217 6.10322 2.42553 8.01088 2.42553 10C2.42553 14.5125 5.41136 17.4575 12.1277 20.6V17.5Z" fill="#6563FF"/>
</svg>
