<svg width="30" height="30" viewBox="0 0 30 30" fill="none" xmlns="http://www.w3.org/2000/svg">
<path d="M29.4001 13.6821L22.5009 7.5235V3.32898C22.5376 2.48832 22.2724 1.66579 21.7636 1.04175C21.2547 0.417708 20.5436 0.043078 19.7862 0H2.68814C1.93608 0.051532 1.23259 0.429826 0.730082 1.05293C0.227574 1.67603 -0.0334897 2.49377 0.00344734 3.32898V19.9739C-0.0104729 20.6349 0.153271 21.2855 0.473808 21.8428C0.794344 22.4001 1.25715 22.8389 1.80324 23.1031C1.52702 23.8531 1.41937 24.6663 1.48958 25.4727C1.55978 26.2791 1.80573 27.0545 2.2062 27.7319C2.60668 28.4092 3.14965 28.9683 3.78826 29.3608C4.42688 29.7533 5.14196 29.9675 5.87181 29.9849C6.60166 30.0022 7.32435 29.8222 7.97753 29.4604C8.63071 29.0986 9.19476 28.5659 9.62102 27.9082C10.0473 27.2505 10.3229 26.4875 10.4242 25.6852C10.5255 24.8829 10.4493 24.0653 10.2023 23.3029H19.7412C19.4945 24.0571 19.4152 24.8662 19.5101 25.6616C19.605 26.4571 19.8711 27.2154 20.2861 27.8725C20.7011 28.5296 21.2526 29.066 21.894 29.4363C22.5353 29.8066 23.2477 30 23.9707 30C24.6937 30 25.406 29.8066 26.0474 29.4363C26.6888 29.066 27.2403 28.5296 27.6553 27.8725C28.0703 27.2154 28.3364 26.4571 28.4313 25.6616C28.5261 24.8662 28.4469 24.0571 28.2002 23.3029H28.5002C28.898 23.3029 29.2794 23.1275 29.5607 22.8154C29.842 22.5032 30 22.0798 30 21.6384V14.9804C29.9954 14.7277 29.939 14.4794 29.835 14.2544C29.7311 14.0295 29.5823 13.8338 29.4001 13.6821ZM27.0003 15.7794V19.9739H22.5009V11.7846L27.0003 15.7794ZM7.50259 24.9674C7.50259 25.2966 7.41462 25.6184 7.24982 25.8921C7.08502 26.1658 6.85077 26.3792 6.57672 26.5052C6.30266 26.6311 6.00109 26.6641 5.71016 26.5999C5.41922 26.5357 5.15197 26.3771 4.94222 26.1443C4.73247 25.9116 4.58962 25.615 4.53175 25.2921C4.47388 24.9692 4.50358 24.6345 4.6171 24.3304C4.73062 24.0263 4.92285 23.7663 5.1695 23.5834C5.41614 23.4005 5.70612 23.3029 6.00276 23.3029C6.40054 23.3029 6.78202 23.4782 7.0633 23.7904C7.34457 24.1025 7.50259 24.5259 7.50259 24.9674ZM15.0017 19.9739H3.0031V3.32898H19.5012V19.9739H15.0017ZM25.5005 24.9674C25.5005 25.2966 25.4126 25.6184 25.2478 25.8921C25.0829 26.1658 24.8487 26.3792 24.5746 26.5052C24.3006 26.6311 23.999 26.6641 23.7081 26.5999C23.4171 26.5357 23.1499 26.3771 22.9401 26.1443C22.7304 25.9116 22.5876 25.615 22.5297 25.2921C22.4718 24.9692 22.5015 24.6345 22.615 24.3304C22.7285 24.0263 22.9208 23.7663 23.1674 23.5834C23.4141 23.4005 23.7041 23.3029 24.0007 23.3029C24.3985 23.3029 24.78 23.4782 25.0612 23.7904C25.3425 24.1025 25.5005 24.5259 25.5005 24.9674Z" fill="#6563FF"/>
</svg>
